<svg width="170" height="35" viewBox="0 0 170 35" fill="none" xmlns="http://www.w3.org/2000/svg">
<path d="M10.228 23V12.44H17.636V13.64H11.508V17.048H16.276V18.248H11.508V21.8H17.876V23H10.228ZM20.1911 23V15H21.3111L21.4231 16.792L21.2151 16.616C21.3858 16.1893 21.6151 15.848 21.9031 15.592C22.1911 15.3253 22.5218 15.1333 22.8951 15.016C23.2791 14.8987 23.6738 14.84 24.0791 14.84C24.6551 14.84 25.1778 14.952 25.6471 15.176C26.1165 15.3893 26.4898 15.72 26.7671 16.168C27.0551 16.616 27.1991 17.1867 27.1991 17.88V23H25.9191V18.328C25.9191 17.4427 25.7271 16.8293 25.3431 16.488C24.9698 16.136 24.5058 15.96 23.9511 15.96C23.5671 15.96 23.1831 16.0507 22.7991 16.232C22.4151 16.4133 22.0951 16.7067 21.8391 17.112C21.5938 17.5173 21.4711 18.0613 21.4711 18.744V23H20.1911ZM36.8334 13.528L37.1214 14.664C37.1107 14.664 37.0947 14.664 37.0734 14.664C37.052 14.664 37.0307 14.664 37.0094 14.664C36.4867 14.664 36.0814 14.7707 35.7934 14.984C35.516 15.1867 35.3774 15.5173 35.3774 15.976L34.5934 15.576C34.5934 15.16 34.6894 14.7973 34.8814 14.488C35.0734 14.1787 35.3347 13.944 35.6654 13.784C35.996 13.6133 36.3587 13.528 36.7534 13.528C36.764 13.528 36.7747 13.528 36.7854 13.528C36.8067 13.528 36.8227 13.528 36.8334 13.528ZM34.4014 21.976C35.1587 21.976 35.7507 22.152 36.1774 22.504C36.604 22.8453 36.8174 23.304 36.8174 23.88C36.8174 24.4027 36.6414 24.856 36.2894 25.24C35.948 25.624 35.484 25.9173 34.8974 26.12C34.3214 26.3333 33.6707 26.44 32.9454 26.44C31.6867 26.44 30.7427 26.2267 30.1134 25.8C29.4947 25.3733 29.1854 24.8613 29.1854 24.264C29.1854 23.8373 29.324 23.4533 29.6014 23.112C29.8894 22.7813 30.3694 22.5947 31.0414 22.552L30.9294 22.792C30.5667 22.696 30.2574 22.536 30.0014 22.312C29.756 22.0773 29.6334 21.7413 29.6334 21.304C29.6334 20.8667 29.7934 20.4933 30.1134 20.184C30.444 19.864 30.9294 19.6667 31.5694 19.592L32.4174 20.024H32.2574C31.7347 20.0773 31.3614 20.2107 31.1374 20.424C30.924 20.6267 30.8174 20.8507 30.8174 21.096C30.8174 21.3947 30.924 21.6187 31.1374 21.768C31.3614 21.9067 31.6707 21.976 32.0654 21.976H34.4014ZM32.9294 25.368C33.548 25.368 34.0547 25.304 34.4494 25.176C34.8547 25.048 35.1534 24.8827 35.3454 24.68C35.5374 24.4773 35.6334 24.2587 35.6334 24.024C35.6334 23.736 35.516 23.5067 35.2814 23.336C35.0574 23.1653 34.6467 23.08 34.0494 23.08H31.5854C31.244 23.08 30.956 23.1653 30.7214 23.336C30.4867 23.5173 30.3694 23.7627 30.3694 24.072C30.3694 24.4667 30.5934 24.7813 31.0414 25.016C31.5 25.2507 32.1294 25.368 32.9294 25.368ZM32.8174 14.84C33.4574 14.84 34.0227 14.9573 34.5134 15.192C35.0147 15.416 35.404 15.7307 35.6814 16.136C35.9587 16.5413 36.0974 17.0107 36.0974 17.544C36.0974 18.0667 35.9587 18.536 35.6814 18.952C35.404 19.3573 35.0147 19.6773 34.5134 19.912C34.0227 20.136 33.4574 20.248 32.8174 20.248C31.7614 20.248 30.9507 19.9973 30.3854 19.496C29.82 18.984 29.5374 18.3333 29.5374 17.544C29.5374 17.0107 29.676 16.5413 29.9534 16.136C30.2414 15.7307 30.6307 15.416 31.1214 15.192C31.612 14.9573 32.1774 14.84 32.8174 14.84ZM32.8174 15.88C32.2627 15.88 31.7987 16.0347 31.4254 16.344C31.052 16.6427 30.8654 17.0427 30.8654 17.544C30.8654 18.0347 31.052 18.4347 31.4254 18.744C31.7987 19.0533 32.2627 19.208 32.8174 19.208C33.372 19.208 33.836 19.0533 34.2094 18.744C34.5827 18.4347 34.7694 18.0347 34.7694 17.544C34.7694 17.0427 34.5827 16.6427 34.2094 16.344C33.836 16.0347 33.372 15.88 32.8174 15.88ZM39.829 11.32V20.968C39.829 21.3733 39.9037 21.656 40.053 21.816C40.2023 21.9653 40.4423 22.04 40.773 22.04C40.9863 22.04 41.1623 22.024 41.301 21.992C41.4397 21.96 41.6263 21.9013 41.861 21.816L41.653 22.936C41.4823 23.0107 41.2957 23.064 41.093 23.096C40.8903 23.1387 40.6823 23.16 40.469 23.16C39.8183 23.16 39.333 22.984 39.013 22.632C38.7037 22.28 38.549 21.7413 38.549 21.016V11.32H39.829ZM44.1436 13.464C43.8556 13.464 43.621 13.3787 43.4396 13.208C43.269 13.0267 43.1836 12.792 43.1836 12.504C43.1836 12.216 43.269 11.9867 43.4396 11.816C43.621 11.6347 43.8556 11.544 44.1436 11.544C44.4316 11.544 44.661 11.6347 44.8316 11.816C45.013 11.9867 45.1036 12.216 45.1036 12.504C45.1036 12.792 45.013 13.0267 44.8316 13.208C44.661 13.3787 44.4316 13.464 44.1436 13.464ZM44.7836 15V23H43.5036V15H44.7836ZM50.6336 23.16C49.855 23.16 49.135 22.9947 48.4736 22.664C47.823 22.3333 47.3216 21.864 46.9696 21.256L48.0576 20.472C48.2923 20.9627 48.6336 21.3467 49.0816 21.624C49.5403 21.9013 50.0896 22.04 50.7296 22.04C51.295 22.04 51.7376 21.9333 52.0576 21.72C52.3776 21.496 52.5376 21.208 52.5376 20.856C52.5376 20.632 52.463 20.4293 52.3136 20.248C52.175 20.056 51.903 19.9173 51.4976 19.832L49.5776 19.432C48.799 19.272 48.239 19.0053 47.8976 18.632C47.567 18.2587 47.4016 17.7947 47.4016 17.24C47.4016 16.8027 47.5243 16.4027 47.7696 16.04C48.0256 15.6773 48.383 15.3893 48.8416 15.176C49.311 14.952 49.8603 14.84 50.4896 14.84C51.279 14.84 51.9456 14.9947 52.4896 15.304C53.0336 15.6133 53.439 16.0507 53.7056 16.616L52.6336 17.32C52.4523 16.8507 52.159 16.5093 51.7536 16.296C51.3483 16.072 50.927 15.96 50.4896 15.96C50.1056 15.96 49.775 16.0133 49.4976 16.12C49.231 16.2267 49.023 16.376 48.8736 16.568C48.735 16.7493 48.6656 16.9573 48.6656 17.192C48.6656 17.4267 48.7456 17.6453 48.9056 17.848C49.0656 18.04 49.3643 18.1787 49.8016 18.264L51.8016 18.68C52.5483 18.8293 53.071 19.0747 53.3696 19.416C53.6683 19.7573 53.8176 20.1733 53.8176 20.664C53.8176 21.1653 53.6843 21.608 53.4176 21.992C53.151 22.3653 52.7776 22.6533 52.2976 22.856C51.8176 23.0587 51.263 23.16 50.6336 23.16ZM56.1911 23V11.32H57.4711V16.2C57.7485 15.72 58.1165 15.3733 58.5751 15.16C59.0338 14.9467 59.5351 14.84 60.0791 14.84C60.6551 14.84 61.1778 14.952 61.6471 15.176C62.1165 15.3893 62.4898 15.72 62.7671 16.168C63.0551 16.616 63.1991 17.1867 63.1991 17.88V23H61.9191V18.328C61.9191 17.4427 61.7271 16.8293 61.3431 16.488C60.9698 16.136 60.5058 15.96 59.9511 15.96C59.5671 15.96 59.1831 16.0507 58.7991 16.232C58.4151 16.4133 58.0951 16.712 57.8391 17.128C57.5938 17.5333 57.4711 18.0773 57.4711 18.76V23H56.1911Z" fill="#9D9D9D"/>
<path d="M158.78 15.4666L154.433 19.8132C153.92 20.3266 153.08 20.3266 152.566 19.8132L148.22 15.4666" stroke="#BBBBBB" stroke-width="1.5" stroke-miterlimit="10" stroke-linecap="round" stroke-linejoin="round"/>
<rect x="1" y="0.5" width="168" height="34" rx="3.5" stroke="#CFCFCF"/>
</svg>
