<svg width="400" height="69" viewBox="0 0 400 69" fill="none" xmlns="http://www.w3.org/2000/svg">
<path d="M0.5 12.5C0.5 6.14873 5.64873 1 12 1H388C394.351 1 399.5 6.14873 399.5 12.5V56.5C399.5 62.8513 394.351 68 388 68H12C5.64872 68 0.5 62.8513 0.5 56.5V12.5Z" fill="#B6B3C6" fill-opacity="0.14"/>
<path d="M33.5827 42.0001C37.9549 42.0001 41.4993 38.4557 41.4993 34.0834C41.4993 29.7112 37.9549 26.1667 33.5827 26.1667C29.2104 26.1667 25.666 29.7112 25.666 34.0834C25.666 38.4557 29.2104 42.0001 33.5827 42.0001Z" stroke="#C3C3C3" stroke-width="1.5" stroke-linecap="round" stroke-linejoin="round"/>
<path d="M42.3327 42.8334L40.666 41.1667" stroke="#C3C3C3" stroke-width="1.5" stroke-linecap="round" stroke-linejoin="round"/>
<path d="M64.48 30.12C65.292 30.12 65.992 30.288 66.58 30.624C67.168 30.9507 67.658 31.436 68.05 32.08L67.112 32.808C66.7667 32.2107 66.3747 31.7907 65.936 31.548C65.5067 31.296 64.984 31.17 64.368 31.17C63.8733 31.17 63.4627 31.24 63.136 31.38C62.8187 31.52 62.5853 31.7067 62.436 31.94C62.2867 32.164 62.212 32.4207 62.212 32.71C62.212 33.0367 62.3147 33.326 62.52 33.578C62.7253 33.8207 63.136 34.012 63.752 34.152L65.754 34.6C66.6407 34.796 67.2567 35.0947 67.602 35.496C67.9567 35.888 68.134 36.378 68.134 36.966C68.134 37.4887 67.9847 37.9553 67.686 38.366C67.3967 38.7673 66.986 39.08 66.454 39.304C65.922 39.528 65.2967 39.64 64.578 39.64C63.906 39.64 63.3133 39.5513 62.8 39.374C62.296 39.1873 61.862 38.94 61.498 38.632C61.134 38.324 60.8353 37.9787 60.602 37.596L61.582 36.798C61.7593 37.1527 61.988 37.4653 62.268 37.736C62.548 38.0067 62.884 38.2167 63.276 38.366C63.6773 38.5153 64.1347 38.59 64.648 38.59C65.124 38.59 65.5347 38.534 65.88 38.422C66.2347 38.3007 66.5053 38.128 66.692 37.904C66.8787 37.6707 66.972 37.3907 66.972 37.064C66.972 36.7653 66.874 36.4993 66.678 36.266C66.482 36.0233 66.1133 35.8413 65.572 35.72L63.402 35.23C62.8327 35.0993 62.3707 34.922 62.016 34.698C61.6707 34.4647 61.4187 34.194 61.26 33.886C61.1107 33.5687 61.036 33.228 61.036 32.864C61.036 32.3693 61.1713 31.9167 61.442 31.506C61.722 31.086 62.1187 30.75 62.632 30.498C63.1547 30.246 63.7707 30.12 64.48 30.12ZM73.1968 39.64C72.5341 39.64 71.9414 39.4953 71.4188 39.206C70.9054 38.9167 70.5041 38.5013 70.2148 37.96C69.9254 37.4093 69.7808 36.756 69.7808 36C69.7808 35.244 69.9254 34.5953 70.2148 34.054C70.5041 33.5033 70.9008 33.0833 71.4048 32.794C71.9088 32.5047 72.4828 32.36 73.1268 32.36C73.7801 32.36 74.3354 32.5 74.7928 32.78C75.2594 33.06 75.6141 33.4427 75.8568 33.928C76.0994 34.404 76.2208 34.9407 76.2208 35.538C76.2208 35.6967 76.2161 35.8413 76.2068 35.972C76.1974 36.1027 76.1834 36.2193 76.1647 36.322H70.5088V35.328H75.6748L75.1008 35.44C75.1008 34.768 74.9141 34.25 74.5408 33.886C74.1768 33.522 73.6961 33.34 73.0988 33.34C72.6414 33.34 72.2448 33.4473 71.9088 33.662C71.5821 33.8673 71.3254 34.1707 71.1388 34.572C70.9614 34.964 70.8728 35.44 70.8728 36C70.8728 36.5507 70.9661 37.0267 71.1528 37.428C71.3394 37.8293 71.6008 38.1373 71.9368 38.352C72.2821 38.5573 72.6928 38.66 73.1688 38.66C73.6821 38.66 74.0974 38.562 74.4148 38.366C74.7414 38.17 75.0028 37.904 75.1988 37.568L76.0808 38.086C75.9034 38.4033 75.6748 38.6787 75.3948 38.912C75.1241 39.1453 74.8021 39.3273 74.4288 39.458C74.0648 39.5793 73.6541 39.64 73.1968 39.64ZM82.4388 34.978C82.4388 34.4553 82.2988 34.054 82.0188 33.774C81.7388 33.4847 81.3422 33.34 80.8288 33.34C80.3435 33.34 79.9328 33.4473 79.5968 33.662C79.2608 33.8673 79.0135 34.2033 78.8548 34.67L77.9448 34.11C78.1315 33.5873 78.4768 33.1673 78.9808 32.85C79.4848 32.5233 80.1102 32.36 80.8568 32.36C81.3608 32.36 81.8182 32.4487 82.2288 32.626C82.6395 32.794 82.9615 33.0553 83.1948 33.41C83.4375 33.7553 83.5588 34.2033 83.5588 34.754V38.142C83.5588 38.478 83.7362 38.646 84.0908 38.646C84.2682 38.646 84.4408 38.6227 84.6088 38.576L84.5528 39.458C84.3662 39.5513 84.1235 39.598 83.8248 39.598C83.5542 39.598 83.3115 39.5467 83.0968 39.444C82.8822 39.3413 82.7142 39.1873 82.5928 38.982C82.4715 38.7673 82.4108 38.5013 82.4108 38.184V38.044L82.6908 38.086C82.5788 38.45 82.3875 38.7487 82.1168 38.982C81.8462 39.206 81.5428 39.374 81.2068 39.486C80.8708 39.5887 80.5395 39.64 80.2128 39.64C79.8022 39.64 79.4195 39.57 79.0648 39.43C78.7102 39.29 78.4255 39.08 78.2108 38.8C78.0055 38.5107 77.9028 38.156 77.9028 37.736C77.9028 37.2133 78.0755 36.784 78.4208 36.448C78.7755 36.1027 79.2655 35.8693 79.8908 35.748L82.6628 35.202V36.126L80.4088 36.588C79.9515 36.6813 79.6108 36.812 79.3868 36.98C79.1628 37.148 79.0508 37.3813 79.0508 37.68C79.0508 37.9693 79.1628 38.2073 79.3868 38.394C79.6202 38.5713 79.9468 38.66 80.3668 38.66C80.6375 38.66 80.8942 38.6273 81.1368 38.562C81.3888 38.4873 81.6128 38.38 81.8088 38.24C82.0048 38.0907 82.1588 37.9087 82.2708 37.694C82.3828 37.47 82.4388 37.2087 82.4388 36.91V34.978ZM86.2805 39.5V32.5H87.1905L87.3445 33.648C87.5405 33.2187 87.8252 32.8967 88.1985 32.682C88.5812 32.4673 89.0432 32.36 89.5845 32.36C89.7058 32.36 89.8365 32.3693 89.9765 32.388C90.1258 32.4067 90.2518 32.444 90.3545 32.5L90.1585 33.522C90.0558 33.4847 89.9438 33.4567 89.8225 33.438C89.7012 33.4193 89.5285 33.41 89.3045 33.41C89.0152 33.41 88.7212 33.494 88.4225 33.662C88.1332 33.83 87.8905 34.0867 87.6945 34.432C87.4985 34.768 87.4005 35.1973 87.4005 35.72V39.5H86.2805ZM94.6746 32.36C95.1599 32.36 95.5846 32.4347 95.9486 32.584C96.3219 32.7333 96.6439 32.948 96.9146 33.228C97.1853 33.508 97.4046 33.8393 97.5726 34.222L96.5086 34.726C96.3593 34.278 96.1306 33.9373 95.8226 33.704C95.5239 33.4613 95.1319 33.34 94.6466 33.34C94.1799 33.34 93.7786 33.4473 93.4426 33.662C93.1066 33.8673 92.8499 34.1707 92.6726 34.572C92.4953 34.964 92.4066 35.44 92.4066 36C92.4066 36.5507 92.4953 37.0267 92.6726 37.428C92.8499 37.8293 93.1066 38.1373 93.4426 38.352C93.7786 38.5573 94.1799 38.66 94.6466 38.66C95.0106 38.66 95.3233 38.604 95.5846 38.492C95.8553 38.38 96.0746 38.2167 96.2426 38.002C96.4199 37.7873 96.5413 37.526 96.6066 37.218L97.6426 37.582C97.4839 38.0113 97.2646 38.38 96.9846 38.688C96.7139 38.996 96.3826 39.234 95.9906 39.402C95.6079 39.5607 95.1693 39.64 94.6746 39.64C94.0213 39.64 93.4379 39.4953 92.9246 39.206C92.4113 38.9167 92.0099 38.5013 91.7206 37.96C91.4313 37.4093 91.2866 36.756 91.2866 36C91.2866 35.244 91.4313 34.5953 91.7206 34.054C92.0099 33.5033 92.4113 33.0833 92.9246 32.794C93.4379 32.5047 94.0213 32.36 94.6746 32.36ZM99.6106 39.5V29.28H100.731V33.55C100.973 33.13 101.295 32.8267 101.697 32.64C102.098 32.4533 102.537 32.36 103.013 32.36C103.517 32.36 103.974 32.458 104.385 32.654C104.795 32.8407 105.122 33.13 105.365 33.522C105.617 33.914 105.743 34.4133 105.743 35.02V39.5H104.623V35.412C104.623 34.6373 104.455 34.1007 104.119 33.802C103.792 33.494 103.386 33.34 102.901 33.34C102.565 33.34 102.229 33.4193 101.893 33.578C101.557 33.7367 101.277 33.998 101.053 34.362C100.838 34.7167 100.731 35.1927 100.731 35.79V39.5H99.6106ZM115.632 29.21C115.875 29.21 116.104 29.238 116.318 29.294C116.533 29.35 116.701 29.4293 116.822 29.532L116.528 30.442C116.416 30.3673 116.295 30.316 116.164 30.288C116.034 30.2507 115.889 30.232 115.73 30.232C115.329 30.232 115.016 30.33 114.792 30.526C114.568 30.7127 114.456 31.016 114.456 31.436V32.5V32.864V39.5H113.336V31.324C113.336 31.016 113.383 30.7313 113.476 30.47C113.57 30.2087 113.71 29.9847 113.896 29.798C114.092 29.6113 114.335 29.4667 114.624 29.364C114.914 29.2613 115.25 29.21 115.632 29.21ZM116.794 32.5V33.466H111.936V32.5H116.794ZM120.993 32.36C121.656 32.36 122.239 32.5047 122.743 32.794C123.256 33.0833 123.658 33.5033 123.947 34.054C124.236 34.5953 124.381 35.244 124.381 36C124.381 36.756 124.236 37.4093 123.947 37.96C123.658 38.5013 123.256 38.9167 122.743 39.206C122.239 39.4953 121.656 39.64 120.993 39.64C120.34 39.64 119.756 39.4953 119.243 39.206C118.73 38.9167 118.328 38.5013 118.039 37.96C117.75 37.4093 117.605 36.756 117.605 36C117.605 35.244 117.75 34.5953 118.039 34.054C118.328 33.5033 118.73 33.0833 119.243 32.794C119.756 32.5047 120.34 32.36 120.993 32.36ZM120.993 33.326C120.517 33.326 120.111 33.4333 119.775 33.648C119.439 33.8627 119.178 34.1707 118.991 34.572C118.814 34.964 118.725 35.44 118.725 36C118.725 36.5507 118.814 37.0267 118.991 37.428C119.178 37.8293 119.439 38.1373 119.775 38.352C120.111 38.5667 120.517 38.674 120.993 38.674C121.469 38.674 121.875 38.5667 122.211 38.352C122.547 38.1373 122.804 37.8293 122.981 37.428C123.168 37.0267 123.261 36.5507 123.261 36C123.261 35.44 123.168 34.964 122.981 34.572C122.804 34.1707 122.547 33.8627 122.211 33.648C121.875 33.4333 121.469 33.326 120.993 33.326ZM126.49 39.5V32.5H127.4L127.554 33.648C127.75 33.2187 128.034 32.8967 128.408 32.682C128.79 32.4673 129.252 32.36 129.794 32.36C129.915 32.36 130.046 32.3693 130.186 32.388C130.335 32.4067 130.461 32.444 130.564 32.5L130.368 33.522C130.265 33.4847 130.153 33.4567 130.032 33.438C129.91 33.4193 129.738 33.41 129.514 33.41C129.224 33.41 128.93 33.494 128.632 33.662C128.342 33.83 128.1 34.0867 127.904 34.432C127.708 34.768 127.61 35.1973 127.61 35.72V39.5H126.49ZM140.736 34.978C140.736 34.4553 140.596 34.054 140.316 33.774C140.036 33.4847 139.639 33.34 139.126 33.34C138.64 33.34 138.23 33.4473 137.894 33.662C137.558 33.8673 137.31 34.2033 137.152 34.67L136.242 34.11C136.428 33.5873 136.774 33.1673 137.278 32.85C137.782 32.5233 138.407 32.36 139.154 32.36C139.658 32.36 140.115 32.4487 140.526 32.626C140.936 32.794 141.258 33.0553 141.492 33.41C141.734 33.7553 141.856 34.2033 141.856 34.754V38.142C141.856 38.478 142.033 38.646 142.388 38.646C142.565 38.646 142.738 38.6227 142.906 38.576L142.85 39.458C142.663 39.5513 142.42 39.598 142.122 39.598C141.851 39.598 141.608 39.5467 141.394 39.444C141.179 39.3413 141.011 39.1873 140.89 38.982C140.768 38.7673 140.708 38.5013 140.708 38.184V38.044L140.988 38.086C140.876 38.45 140.684 38.7487 140.414 38.982C140.143 39.206 139.84 39.374 139.504 39.486C139.168 39.5887 138.836 39.64 138.51 39.64C138.099 39.64 137.716 39.57 137.362 39.43C137.007 39.29 136.722 39.08 136.508 38.8C136.302 38.5107 136.2 38.156 136.2 37.736C136.2 37.2133 136.372 36.784 136.718 36.448C137.072 36.1027 137.562 35.8693 138.188 35.748L140.96 35.202V36.126L138.706 36.588C138.248 36.6813 137.908 36.812 137.684 36.98C137.46 37.148 137.348 37.3813 137.348 37.68C137.348 37.9693 137.46 38.2073 137.684 38.394C137.917 38.5713 138.244 38.66 138.664 38.66C138.934 38.66 139.191 38.6273 139.434 38.562C139.686 38.4873 139.91 38.38 140.106 38.24C140.302 38.0907 140.456 37.9087 140.568 37.694C140.68 37.47 140.736 37.2087 140.736 36.91V34.978ZM149.021 42.44V32.5H150.001L150.099 34.208L149.945 34.012C150.066 33.6853 150.248 33.4007 150.491 33.158C150.733 32.906 151.027 32.71 151.373 32.57C151.718 32.43 152.091 32.36 152.493 32.36C153.062 32.36 153.585 32.5047 154.061 32.794C154.546 33.0833 154.933 33.4987 155.223 34.04C155.512 34.5813 155.657 35.2347 155.657 36C155.657 36.756 155.507 37.4093 155.209 37.96C154.919 38.5013 154.532 38.9167 154.047 39.206C153.561 39.4953 153.029 39.64 152.451 39.64C151.872 39.64 151.363 39.5 150.925 39.22C150.495 38.9307 150.187 38.5667 150.001 38.128L150.141 37.918V42.44H149.021ZM152.339 38.66C153.029 38.66 153.566 38.4173 153.949 37.932C154.341 37.4467 154.537 36.8027 154.537 36C154.537 35.1973 154.345 34.5533 153.963 34.068C153.589 33.5827 153.062 33.34 152.381 33.34C151.933 33.34 151.541 33.452 151.205 33.676C150.869 33.8907 150.607 34.1987 150.421 34.6C150.234 34.992 150.141 35.4587 150.141 36C150.141 36.532 150.229 36.9987 150.407 37.4C150.593 37.8013 150.85 38.114 151.177 38.338C151.513 38.5527 151.9 38.66 152.339 38.66ZM161.886 34.978C161.886 34.4553 161.746 34.054 161.466 33.774C161.186 33.4847 160.789 33.34 160.276 33.34C159.791 33.34 159.38 33.4473 159.044 33.662C158.708 33.8673 158.461 34.2033 158.302 34.67L157.392 34.11C157.579 33.5873 157.924 33.1673 158.428 32.85C158.932 32.5233 159.557 32.36 160.304 32.36C160.808 32.36 161.265 32.4487 161.676 32.626C162.087 32.794 162.409 33.0553 162.642 33.41C162.885 33.7553 163.006 34.2033 163.006 34.754V38.142C163.006 38.478 163.183 38.646 163.538 38.646C163.715 38.646 163.888 38.6227 164.056 38.576L164 39.458C163.813 39.5513 163.571 39.598 163.272 39.598C163.001 39.598 162.759 39.5467 162.544 39.444C162.329 39.3413 162.161 39.1873 162.04 38.982C161.919 38.7673 161.858 38.5013 161.858 38.184V38.044L162.138 38.086C162.026 38.45 161.835 38.7487 161.564 38.982C161.293 39.206 160.99 39.374 160.654 39.486C160.318 39.5887 159.987 39.64 159.66 39.64C159.249 39.64 158.867 39.57 158.512 39.43C158.157 39.29 157.873 39.08 157.658 38.8C157.453 38.5107 157.35 38.156 157.35 37.736C157.35 37.2133 157.523 36.784 157.868 36.448C158.223 36.1027 158.713 35.8693 159.338 35.748L162.11 35.202V36.126L159.856 36.588C159.399 36.6813 159.058 36.812 158.834 36.98C158.61 37.148 158.498 37.3813 158.498 37.68C158.498 37.9693 158.61 38.2073 158.834 38.394C159.067 38.5713 159.394 38.66 159.814 38.66C160.085 38.66 160.341 38.6273 160.584 38.562C160.836 38.4873 161.06 38.38 161.256 38.24C161.452 38.0907 161.606 37.9087 161.718 37.694C161.83 37.47 161.886 37.2087 161.886 36.91V34.978ZM165.728 39.5V32.5H166.638L166.792 33.648C166.988 33.2187 167.272 32.8967 167.646 32.682C168.028 32.4673 168.49 32.36 169.032 32.36C169.153 32.36 169.284 32.3693 169.424 32.388C169.573 32.4067 169.699 32.444 169.802 32.5L169.606 33.522C169.503 33.4847 169.391 33.4567 169.27 33.438C169.148 33.4193 168.976 33.41 168.752 33.41C168.462 33.41 168.168 33.494 167.87 33.662C167.58 33.83 167.338 34.0867 167.142 34.432C166.946 34.768 166.848 35.1973 166.848 35.72V39.5H165.728ZM172.671 30.512V37.568C172.671 37.9133 172.769 38.17 172.965 38.338C173.161 38.506 173.413 38.59 173.721 38.59C173.991 38.59 174.225 38.5433 174.421 38.45C174.617 38.3567 174.794 38.2307 174.953 38.072L175.345 39.01C175.13 39.206 174.873 39.36 174.575 39.472C174.285 39.584 173.949 39.64 173.567 39.64C173.212 39.64 172.881 39.5793 172.573 39.458C172.265 39.3273 172.017 39.1267 171.831 38.856C171.653 38.576 171.56 38.212 171.551 37.764V30.82L172.671 30.512ZM175.219 32.5V33.466H170.151V32.5H175.219ZM177.444 31.156C177.192 31.156 176.987 31.0813 176.828 30.932C176.679 30.7733 176.604 30.568 176.604 30.316C176.604 30.064 176.679 29.8633 176.828 29.714C176.987 29.5553 177.192 29.476 177.444 29.476C177.696 29.476 177.897 29.5553 178.046 29.714C178.205 29.8633 178.284 30.064 178.284 30.316C178.284 30.568 178.205 30.7733 178.046 30.932C177.897 31.0813 177.696 31.156 177.444 31.156ZM178.004 32.5V39.5H176.884V32.5H178.004ZM183.501 32.36C183.986 32.36 184.411 32.4347 184.775 32.584C185.148 32.7333 185.47 32.948 185.741 33.228C186.011 33.508 186.231 33.8393 186.399 34.222L185.335 34.726C185.185 34.278 184.957 33.9373 184.649 33.704C184.35 33.4613 183.958 33.34 183.473 33.34C183.006 33.34 182.605 33.4473 182.269 33.662C181.933 33.8673 181.676 34.1707 181.499 34.572C181.321 34.964 181.233 35.44 181.233 36C181.233 36.5507 181.321 37.0267 181.499 37.428C181.676 37.8293 181.933 38.1373 182.269 38.352C182.605 38.5573 183.006 38.66 183.473 38.66C183.837 38.66 184.149 38.604 184.411 38.492C184.681 38.38 184.901 38.2167 185.069 38.002C185.246 37.7873 185.367 37.526 185.433 37.218L186.469 37.582C186.31 38.0113 186.091 38.38 185.811 38.688C185.54 38.996 185.209 39.234 184.817 39.402C184.434 39.5607 183.995 39.64 183.501 39.64C182.847 39.64 182.264 39.4953 181.751 39.206C181.237 38.9167 180.836 38.5013 180.547 37.96C180.257 37.4093 180.113 36.756 180.113 36C180.113 35.244 180.257 34.5953 180.547 34.054C180.836 33.5033 181.237 33.0833 181.751 32.794C182.264 32.5047 182.847 32.36 183.501 32.36ZM190.971 39.64C190.523 39.64 190.098 39.556 189.697 39.388C189.305 39.22 188.983 38.9493 188.731 38.576C188.488 38.1933 188.367 37.6987 188.367 37.092V32.5H189.487V36.798C189.487 37.5073 189.641 37.9973 189.949 38.268C190.257 38.5293 190.691 38.66 191.251 38.66C191.512 38.66 191.769 38.618 192.021 38.534C192.273 38.4407 192.497 38.3007 192.693 38.114C192.898 37.918 193.057 37.6707 193.169 37.372C193.29 37.0733 193.351 36.7187 193.351 36.308V32.5H194.471V39.5H193.491L193.421 38.436C193.178 38.856 192.847 39.164 192.427 39.36C192.016 39.5467 191.531 39.64 190.971 39.64ZM198.141 29.28V37.722C198.141 38.0767 198.207 38.324 198.337 38.464C198.468 38.5947 198.678 38.66 198.967 38.66C199.154 38.66 199.308 38.646 199.429 38.618C199.551 38.59 199.714 38.5387 199.919 38.464L199.737 39.444C199.588 39.5093 199.425 39.556 199.247 39.584C199.07 39.6213 198.888 39.64 198.701 39.64C198.132 39.64 197.707 39.486 197.427 39.178C197.157 38.87 197.021 38.3987 197.021 37.764V29.28H198.141ZM205.445 34.978C205.445 34.4553 205.305 34.054 205.025 33.774C204.745 33.4847 204.348 33.34 203.835 33.34C203.349 33.34 202.939 33.4473 202.603 33.662C202.267 33.8673 202.019 34.2033 201.861 34.67L200.951 34.11C201.137 33.5873 201.483 33.1673 201.987 32.85C202.491 32.5233 203.116 32.36 203.863 32.36C204.367 32.36 204.824 32.4487 205.235 32.626C205.645 32.794 205.967 33.0553 206.201 33.41C206.443 33.7553 206.565 34.2033 206.565 34.754V38.142C206.565 38.478 206.742 38.646 207.097 38.646C207.274 38.646 207.447 38.6227 207.615 38.576L207.559 39.458C207.372 39.5513 207.129 39.598 206.831 39.598C206.56 39.598 206.317 39.5467 206.103 39.444C205.888 39.3413 205.72 39.1873 205.599 38.982C205.477 38.7673 205.417 38.5013 205.417 38.184V38.044L205.697 38.086C205.585 38.45 205.393 38.7487 205.123 38.982C204.852 39.206 204.549 39.374 204.213 39.486C203.877 39.5887 203.545 39.64 203.219 39.64C202.808 39.64 202.425 39.57 202.071 39.43C201.716 39.29 201.431 39.08 201.217 38.8C201.011 38.5107 200.909 38.156 200.909 37.736C200.909 37.2133 201.081 36.784 201.427 36.448C201.781 36.1027 202.271 35.8693 202.897 35.748L205.669 35.202V36.126L203.415 36.588C202.957 36.6813 202.617 36.812 202.393 36.98C202.169 37.148 202.057 37.3813 202.057 37.68C202.057 37.9693 202.169 38.2073 202.393 38.394C202.626 38.5713 202.953 38.66 203.373 38.66C203.643 38.66 203.9 38.6273 204.143 38.562C204.395 38.4873 204.619 38.38 204.815 38.24C205.011 38.0907 205.165 37.9087 205.277 37.694C205.389 37.47 205.445 37.2087 205.445 36.91V34.978ZM209.286 39.5V32.5H210.196L210.35 33.648C210.546 33.2187 210.831 32.8967 211.204 32.682C211.587 32.4673 212.049 32.36 212.59 32.36C212.712 32.36 212.842 32.3693 212.982 32.388C213.132 32.4067 213.258 32.444 213.36 32.5L213.164 33.522C213.062 33.4847 212.95 33.4567 212.828 33.438C212.707 33.4193 212.534 33.41 212.31 33.41C212.021 33.41 211.727 33.494 211.428 33.662C211.139 33.83 210.896 34.0867 210.7 34.432C210.504 34.768 210.406 35.1973 210.406 35.72V39.5H209.286ZM223.723 32.5H224.899L221.987 39.5H220.867L217.955 32.5H219.229L221.441 38.366L223.723 32.5ZM226.923 31.156C226.671 31.156 226.465 31.0813 226.307 30.932C226.157 30.7733 226.083 30.568 226.083 30.316C226.083 30.064 226.157 29.8633 226.307 29.714C226.465 29.5553 226.671 29.476 226.923 29.476C227.175 29.476 227.375 29.5553 227.525 29.714C227.683 29.8633 227.763 30.064 227.763 30.316C227.763 30.568 227.683 30.7733 227.525 30.932C227.375 31.0813 227.175 31.156 226.923 31.156ZM227.483 32.5V39.5H226.363V32.5H227.483ZM232.811 39.64C232.233 39.64 231.701 39.4953 231.215 39.206C230.73 38.9167 230.343 38.5013 230.053 37.96C229.764 37.4093 229.619 36.756 229.619 36C229.619 35.2253 229.773 34.5673 230.081 34.026C230.389 33.4847 230.795 33.074 231.299 32.794C231.803 32.5047 232.345 32.36 232.923 32.36C233.502 32.36 234.001 32.5093 234.421 32.808C234.851 33.1067 235.135 33.5033 235.275 33.998L235.135 34.096V29.28H236.255V39.5H235.275L235.177 37.806L235.331 37.722C235.266 38.1327 235.107 38.4827 234.855 38.772C234.613 39.052 234.309 39.2667 233.945 39.416C233.591 39.5653 233.213 39.64 232.811 39.64ZM232.923 38.66C233.371 38.66 233.759 38.548 234.085 38.324C234.421 38.1 234.678 37.7827 234.855 37.372C235.042 36.952 235.135 36.462 235.135 35.902C235.135 35.37 235.042 34.9127 234.855 34.53C234.678 34.1473 234.426 33.8533 234.099 33.648C233.782 33.4427 233.409 33.34 232.979 33.34C232.27 33.34 231.719 33.5827 231.327 34.068C230.935 34.5533 230.739 35.1973 230.739 36C230.739 36.8027 230.931 37.4467 231.313 37.932C231.696 38.4173 232.233 38.66 232.923 38.66ZM241.785 39.64C241.122 39.64 240.529 39.4953 240.007 39.206C239.493 38.9167 239.092 38.5013 238.803 37.96C238.513 37.4093 238.369 36.756 238.369 36C238.369 35.244 238.513 34.5953 238.803 34.054C239.092 33.5033 239.489 33.0833 239.993 32.794C240.497 32.5047 241.071 32.36 241.715 32.36C242.368 32.36 242.923 32.5 243.381 32.78C243.847 33.06 244.202 33.4427 244.445 33.928C244.687 34.404 244.809 34.9407 244.809 35.538C244.809 35.6967 244.804 35.8413 244.795 35.972C244.785 36.1027 244.771 36.2193 244.753 36.322H239.097V35.328H244.263L243.689 35.44C243.689 34.768 243.502 34.25 243.129 33.886C242.765 33.522 242.284 33.34 241.687 33.34C241.229 33.34 240.833 33.4473 240.497 33.662C240.17 33.8673 239.913 34.1707 239.727 34.572C239.549 34.964 239.461 35.44 239.461 36C239.461 36.5507 239.554 37.0267 239.741 37.428C239.927 37.8293 240.189 38.1373 240.525 38.352C240.87 38.5573 241.281 38.66 241.757 38.66C242.27 38.66 242.685 38.562 243.003 38.366C243.329 38.17 243.591 37.904 243.787 37.568L244.669 38.086C244.491 38.4033 244.263 38.6787 243.983 38.912C243.712 39.1453 243.39 39.3273 243.017 39.458C242.653 39.5793 242.242 39.64 241.785 39.64ZM249.837 32.36C250.499 32.36 251.083 32.5047 251.587 32.794C252.1 33.0833 252.501 33.5033 252.791 34.054C253.08 34.5953 253.225 35.244 253.225 36C253.225 36.756 253.08 37.4093 252.791 37.96C252.501 38.5013 252.1 38.9167 251.587 39.206C251.083 39.4953 250.499 39.64 249.837 39.64C249.183 39.64 248.6 39.4953 248.087 39.206C247.573 38.9167 247.172 38.5013 246.883 37.96C246.593 37.4093 246.449 36.756 246.449 36C246.449 35.244 246.593 34.5953 246.883 34.054C247.172 33.5033 247.573 33.0833 248.087 32.794C248.6 32.5047 249.183 32.36 249.837 32.36ZM249.837 33.326C249.361 33.326 248.955 33.4333 248.619 33.648C248.283 33.8627 248.021 34.1707 247.835 34.572C247.657 34.964 247.569 35.44 247.569 36C247.569 36.5507 247.657 37.0267 247.835 37.428C248.021 37.8293 248.283 38.1373 248.619 38.352C248.955 38.5667 249.361 38.674 249.837 38.674C250.313 38.674 250.719 38.5667 251.055 38.352C251.391 38.1373 251.647 37.8293 251.825 37.428C252.011 37.0267 252.105 36.5507 252.105 36C252.105 35.44 252.011 34.964 251.825 34.572C251.647 34.1707 251.391 33.8627 251.055 33.648C250.719 33.4333 250.313 33.326 249.837 33.326Z" fill="#C3C3C3"/>
<path d="M0.5 12.5C0.5 6.14873 5.64873 1 12 1H388C394.351 1 399.5 6.14873 399.5 12.5V56.5C399.5 62.8513 394.351 68 388 68H12C5.64872 68 0.5 62.8513 0.5 56.5V12.5Z" stroke="#E7E7ED"/>
</svg>
