<svg width="163" height="40" viewBox="0 0 163 40" fill="none" xmlns="http://www.w3.org/2000/svg">
<path opacity="0.4" d="M20.0007 36.6834C29.2054 36.6834 36.6673 29.2215 36.6673 20.0168C36.6673 10.812 29.2054 3.3501 20.0007 3.3501C10.7959 3.3501 3.33398 10.812 3.33398 20.0168C3.33398 29.2215 10.7959 36.6834 20.0007 36.6834Z" fill="#515151"/>
<path d="M20 11.5667C16.55 11.5667 13.75 14.3666 13.75 17.8166C13.75 21.2 16.4 23.95 19.9167 24.05C19.9667 24.05 20.0333 24.05 20.0667 24.05C20.1 24.05 20.15 24.05 20.1833 24.05C20.2 24.05 20.2167 24.05 20.2167 24.05C23.5833 23.9333 26.2333 21.2 26.25 17.8166C26.25 14.3666 23.45 11.5667 20 11.5667Z" fill="#515151"/>
<path d="M31.2992 32.2666C28.3326 34.9999 24.3659 36.6832 19.9992 36.6832C15.6326 36.6832 11.6659 34.9999 8.69922 32.2666C9.09922 30.7499 10.1826 29.3666 11.7659 28.2999C16.3159 25.2666 23.7159 25.2666 28.2326 28.2999C29.8326 29.3666 30.8992 30.7499 31.2992 32.2666Z" fill="#515151"/>
<path d="M55.44 14.94V21.884C55.44 23.068 55.12 23.996 54.48 24.668C53.8507 25.3293 52.976 25.66 51.856 25.66C51.0667 25.66 50.416 25.5107 49.904 25.212C49.392 24.9133 49.0347 24.492 48.832 23.948C48.64 23.3933 48.6133 22.748 48.752 22.012L49.936 21.772C49.8187 22.6787 49.8987 23.356 50.176 23.804C50.464 24.2413 51.008 24.46 51.808 24.46C52.7147 24.46 53.3333 24.2147 53.664 23.724C53.9947 23.2227 54.16 22.5027 54.16 21.564V14.94H55.44ZM61.7375 17.34C62.4948 17.34 63.1615 17.5053 63.7375 17.836C64.3242 18.1667 64.7828 18.6467 65.1135 19.276C65.4442 19.8947 65.6095 20.636 65.6095 21.5C65.6095 22.364 65.4442 23.1107 65.1135 23.74C64.7828 24.3587 64.3242 24.8333 63.7375 25.164C63.1615 25.4947 62.4948 25.66 61.7375 25.66C60.9908 25.66 60.3242 25.4947 59.7375 25.164C59.1508 24.8333 58.6922 24.3587 58.3615 23.74C58.0308 23.1107 57.8655 22.364 57.8655 21.5C57.8655 20.636 58.0308 19.8947 58.3615 19.276C58.6922 18.6467 59.1508 18.1667 59.7375 17.836C60.3242 17.5053 60.9908 17.34 61.7375 17.34ZM61.7375 18.444C61.1935 18.444 60.7295 18.5667 60.3455 18.812C59.9615 19.0573 59.6628 19.4093 59.4495 19.868C59.2468 20.316 59.1455 20.86 59.1455 21.5C59.1455 22.1293 59.2468 22.6733 59.4495 23.132C59.6628 23.5907 59.9615 23.9427 60.3455 24.188C60.7295 24.4333 61.1935 24.556 61.7375 24.556C62.2815 24.556 62.7455 24.4333 63.1295 24.188C63.5135 23.9427 63.8068 23.5907 64.0095 23.132C64.2228 22.6733 64.3295 22.1293 64.3295 21.5C64.3295 20.86 64.2228 20.316 64.0095 19.868C63.8068 19.4093 63.5135 19.0573 63.1295 18.812C62.7455 18.5667 62.2815 18.444 61.7375 18.444ZM68.0193 25.5V13.82H69.2993V18.7C69.5766 18.22 69.9446 17.8733 70.4033 17.66C70.8619 17.4467 71.3633 17.34 71.9073 17.34C72.4833 17.34 73.0059 17.452 73.4753 17.676C73.9446 17.8893 74.3179 18.22 74.5953 18.668C74.8833 19.116 75.0273 19.6867 75.0273 20.38V25.5H73.7473V20.828C73.7473 19.9427 73.5553 19.3293 73.1713 18.988C72.7979 18.636 72.3339 18.46 71.7793 18.46C71.3953 18.46 71.0113 18.5507 70.6273 18.732C70.2433 18.9133 69.9233 19.212 69.6673 19.628C69.4219 20.0333 69.2993 20.5773 69.2993 21.26V25.5H68.0193ZM77.9255 25.5V17.5H79.0455L79.1575 19.292L78.9495 19.116C79.1202 18.6893 79.3495 18.348 79.6375 18.092C79.9255 17.8253 80.2562 17.6333 80.6295 17.516C81.0135 17.3987 81.4082 17.34 81.8135 17.34C82.3895 17.34 82.9122 17.452 83.3815 17.676C83.8508 17.8893 84.2242 18.22 84.5015 18.668C84.7895 19.116 84.9335 19.6867 84.9335 20.38V25.5H83.6535V20.828C83.6535 19.9427 83.4615 19.3293 83.0775 18.988C82.7042 18.636 82.2402 18.46 81.6855 18.46C81.3015 18.46 80.9175 18.5507 80.5335 18.732C80.1495 18.9133 79.8295 19.2067 79.5735 19.612C79.3282 20.0173 79.2055 20.5613 79.2055 21.244V25.5H77.9255ZM103.733 14.94V25.5H102.517V18.86L102.661 16.076H102.645L99.1729 25.5H98.0849L94.6129 16.076H94.5969L94.7409 18.86V25.5H93.5249V14.94H95.4929L97.8129 21.356L98.6129 23.996H98.6449L99.4609 21.372L101.765 14.94H103.733ZM111.519 20.332C111.519 19.7347 111.359 19.276 111.039 18.956C110.719 18.6253 110.266 18.46 109.679 18.46C109.125 18.46 108.655 18.5827 108.271 18.828C107.887 19.0627 107.605 19.4467 107.423 19.98L106.383 19.34C106.597 18.7427 106.991 18.2627 107.567 17.9C108.143 17.5267 108.858 17.34 109.711 17.34C110.287 17.34 110.81 17.4413 111.279 17.644C111.749 17.836 112.117 18.1347 112.383 18.54C112.661 18.9347 112.799 19.4467 112.799 20.076V23.948C112.799 24.332 113.002 24.524 113.407 24.524C113.61 24.524 113.807 24.4973 113.999 24.444L113.935 25.452C113.722 25.5587 113.445 25.612 113.103 25.612C112.794 25.612 112.517 25.5533 112.271 25.436C112.026 25.3187 111.834 25.1427 111.695 24.908C111.557 24.6627 111.487 24.3587 111.487 23.996V23.836L111.807 23.884C111.679 24.3 111.461 24.6413 111.151 24.908C110.842 25.164 110.495 25.356 110.111 25.484C109.727 25.6013 109.349 25.66 108.975 25.66C108.506 25.66 108.069 25.58 107.663 25.42C107.258 25.26 106.933 25.02 106.687 24.7C106.453 24.3693 106.335 23.964 106.335 23.484C106.335 22.8867 106.533 22.396 106.927 22.012C107.333 21.6173 107.893 21.3507 108.607 21.212L111.775 20.588V21.644L109.199 22.172C108.677 22.2787 108.287 22.428 108.031 22.62C107.775 22.812 107.647 23.0787 107.647 23.42C107.647 23.7507 107.775 24.0227 108.031 24.236C108.298 24.4387 108.671 24.54 109.151 24.54C109.461 24.54 109.754 24.5027 110.031 24.428C110.319 24.3427 110.575 24.22 110.799 24.06C111.023 23.8893 111.199 23.6813 111.327 23.436C111.455 23.18 111.519 22.8813 111.519 22.54V20.332ZM115.91 25.5V17.5H116.95L117.126 18.812C117.35 18.3213 117.675 17.9533 118.102 17.708C118.539 17.4627 119.067 17.34 119.686 17.34C119.825 17.34 119.974 17.3507 120.134 17.372C120.305 17.3933 120.449 17.436 120.566 17.5L120.342 18.668C120.225 18.6253 120.097 18.5933 119.958 18.572C119.819 18.5507 119.622 18.54 119.366 18.54C119.035 18.54 118.699 18.636 118.358 18.828C118.027 19.02 117.75 19.3133 117.526 19.708C117.302 20.092 117.19 20.5827 117.19 21.18V25.5H115.91ZM129.465 17.5L126.009 20.956L125.705 21.26L123.081 23.884V22.284L127.849 17.5H129.465ZM123.721 13.82V25.5H122.441V13.82H123.721ZM126.121 20.3L129.657 25.5H128.105L125.049 21.02L126.121 20.3Z" fill="#141414"/>
<path d="M158.92 16.95L152.4 23.47C151.63 24.24 150.37 24.24 149.6 23.47L143.08 16.95" stroke="black" stroke-miterlimit="10" stroke-linecap="round" stroke-linejoin="round"/>
</svg>
